<?xml version="1.0" encoding="UTF-8" standalone="no"?>
<svg
   xmlns:dc="http://purl.org/dc/elements/1.1/"
   xmlns:cc="http://creativecommons.org/ns#"
   xmlns:rdf="http://www.w3.org/1999/02/22-rdf-syntax-ns#"
   xmlns:svg="http://www.w3.org/2000/svg"
   xmlns="http://www.w3.org/2000/svg"
   viewBox="0 0 384 384"
   height="384"
   width="384"
   xml:space="preserve"
   id="svg2"
   version="1.1"><metadata
     id="metadata8"><rdf:RDF><cc:Work
         rdf:about=""><dc:format>image/svg+xml</dc:format><dc:type
           rdf:resource="http://purl.org/dc/dcmitype/StillImage" /></cc:Work></rdf:RDF></metadata><defs
     id="defs6"><clipPath
       id="clipPath18"
       clipPathUnits="userSpaceOnUse"><path
         style="clip-rule:evenodd"
         id="path16"
         d="m 36.3285,122.0284 -0.2381,0.0133 v 0.9136 h -1.9888 c 0.766,0.009 1.3964,0.0258 1.891,0.0524 l -1.5885,4.5117 c -0.2356,0.6624 -0.5715,1.622 -0.9987,2.88 -0.3211,0.9164 -0.547,1.5644 -0.6766,1.9389 -0.1292,-0.3938 -0.3934,-1.1376 -0.7869,-2.232 -0.4323,-1.1999 -0.7344,-2.0543 -0.917,-2.5583 l -1.603,-4.5403 0.4323,-0.0175 v -0.0349 h -0.5939 v -0.894 h 0.5939 v -9e-4 c -0.284,-0.009 -0.5451,-0.0198 -0.7826,-0.032 l -1.2623,-3.4844 c -0.5088,-1.387 -0.7631,-2.3808 -0.7631,-2.9806 0,-0.216 0.0286,-0.3934 0.0862,-0.5377 0.1298,-0.2781 0.3889,-0.4703 0.7727,-0.5757 0.1777,-0.0482 0.5953,-0.1007 1.2529,-0.1681 0.1967,-0.019 0.2928,-0.1248 0.2928,-0.3218 0,-0.1868 -0.0961,-0.2829 -0.2928,-0.2829 -1.1089,0.0576 -2.0639,0.0862 -2.8701,0.0862 -1.0128,0 -2.016,-0.0286 -3.0095,-0.0862 -0.1681,0 -0.2543,0.0961 -0.2543,0.2829 0,0.1874 0.0862,0.2931 0.2543,0.3218 0.864,0.1105 1.4686,0.3696 1.8145,0.7727 0.3118,0.3552 0.8396,1.5551 1.5885,3.5952 l 3.3211,9.0232 c 1.2435,3.3741 2.0208,5.5341 2.3329,6.4794 l 1.1661,0.5474 c 0.0862,0 0.1537,-0.0819 0.2112,-0.2404 1.3105,-4.0169 2.0832,-6.3306 2.304,-6.94 l 3.2494,-9.0907 c 0.6576,-1.8284 1.1423,-2.9614 1.4638,-3.403 0.2064,-0.2877 0.4992,-0.4848 0.8878,-0.5902 0.2018,-0.0575 0.576,-0.1055 1.1086,-0.1536 0.1874,-0.019 0.2787,-0.1248 0.2787,-0.3218 0,-0.1868 -0.0913,-0.2829 -0.2787,-0.2829 -1.3677,0.0768 -2.467,0.1106 -3.2921,0.1106 -0.7971,0 -1.8576,-0.0338 -3.1918,-0.1106 -0.1874,0 -0.2787,0.0961 -0.2787,0.2829 0,0.197 0.0913,0.3028 0.2787,0.3218 1.1902,0.1009 1.8717,0.341 2.0398,0.7151 0.0768,0.173 0.1151,0.3697 0.1151,0.5902 0,0.4516 -0.2305,1.3105 -0.6911,2.5778 z m 16.8996,12.3256 c 3.9595,0 6.9069,-1.1469 8.8458,-3.4461 1.4828,-1.7711 2.2224,-4.0173 2.2224,-6.7433 0,-3.2063 -0.9794,-5.7597 -2.9376,-7.6652 -1.987,-1.9196 -4.771,-2.8797 -8.3511,-2.8797 -0.1443,0 -1.1475,0.0286 -3.0096,0.0862 -0.0671,0 -0.5615,0.0192 -1.4782,0.0575 -0.504,0.0193 -0.9119,0.0289 -1.2243,0.0289 -0.7484,0 -1.7515,-0.0383 -3.0093,-0.1151 -0.1681,0 -0.2542,0.0961 -0.2542,0.2829 0,0.1874 0.0861,0.2931 0.2542,0.3218 1.0704,0.0768 1.7425,0.3503 2.0257,0.8305 0.2928,0.4748 0.4365,1.766 0.4365,3.8633 v 10.1611 c 0,1.6129 -0.0093,2.5486 -0.0286,2.8128 -0.0289,0.3649 -0.1151,0.6815 -0.2687,0.9406 -0.2064,0.3937 -0.965,0.6528 -2.2751,0.7727 -0.1678,0.0193 -0.2546,0.1295 -0.2546,0.3263 0,0.2066 0.0961,0.3072 0.2835,0.3072 1.3291,-0.0768 2.323,-0.1105 2.9806,-0.1105 0.7296,0 1.6223,0.0241 2.6685,0.0816 1.2572,0.0576 2.3803,0.0865 3.3741,0.0865 z m -4.8909,-5.2126 v -10.1702 c 0,-1.2577 0.0193,-2.035 0.0576,-2.3326 0.053,-0.5567 0.2018,-0.9839 0.4323,-1.296 0.2925,-0.3838 0.8781,-0.6287 1.7614,-0.7297 0.4317,-0.0476 1.2186,-0.072 2.361,-0.072 3.3361,0 5.8413,1.0993 7.5067,3.2931 1.2767,1.6701 1.9151,3.7482 1.9151,6.2441 0,2.9183 -0.9119,5.2413 -2.7309,6.9783 -1.6557,1.584 -3.8206,2.376 -6.4939,2.376 -1.4925,0 -2.5294,-0.0479 -3.1246,-0.1391 -0.6526,-0.1055 -1.0704,-0.288 -1.2479,-0.5517 -0.2063,-0.2979 -0.3407,-0.792 -0.3937,-1.4734 -0.0286,-0.3841 -0.0431,-1.0945 -0.0431,-2.1268 z m 23.1871,-5.4137 v -4.752 c 0,-1.6508 0.0145,-2.6444 0.0431,-2.9948 0.0338,-0.3455 0.1299,-0.6528 0.2784,-0.9263 0.2256,-0.4317 0.9553,-0.6911 2.1934,-0.7727 0.1679,-0.019 0.2546,-0.1248 0.2546,-0.3218 0,-0.1868 -0.0961,-0.2829 -0.2835,-0.2829 -1.4879,0.0768 -2.5866,0.1106 -3.2876,0.1106 -0.8637,0 -1.9054,-0.0338 -3.1246,-0.1106 -0.1871,0 -0.2781,0.0961 -0.2781,0.2829 0,0.1874 0.091,0.2931 0.2781,0.3218 1.0993,0.1105 1.7518,0.3696 1.9582,0.7727 0.269,0.4609 0.4081,1.7663 0.4081,3.9211 v 10.19 c 0,1.5358 -0.0192,2.4716 -0.0578,2.7981 -0.0383,0.3456 -0.1343,0.6574 -0.2973,0.9264 -0.2257,0.3937 -0.9939,0.6528 -2.3038,0.7727 -0.1681,0.0289 -0.2545,0.1392 -0.2545,0.3263 0,0.2066 0.0864,0.3072 0.2545,0.3072 1.3295,-0.0768 2.4188,-0.1105 3.2636,-0.1105 0.197,0 0.8302,0.0193 1.9102,0.053 0.845,0.0575 1.8335,0.0862 2.9662,0.0862 2.4287,0 4.2333,-0.5709 5.4142,-1.7133 0.9164,-0.9025 1.3773,-2.0781 1.3773,-3.5325 0,-1.224 -0.4365,-2.2989 -1.3053,-3.2159 -0.8447,-0.8927 -2.0208,-1.5404 -3.5328,-1.9437 1.5746,-3.0334 2.8511,-5.3612 3.8256,-6.9835 0.6384,-1.0942 1.1855,-1.8142 1.6461,-2.1648 0.3265,-0.2398 0.9312,-0.4079 1.8142,-0.4895 0.1873,-0.0287 0.2831,-0.1344 0.2831,-0.3218 0,-0.1868 -0.0958,-0.2829 -0.2831,-0.2829 -0.8737,0.0576 -1.5551,0.0862 -2.0543,0.0862 -0.739,0 -1.2909,-0.009 -1.6557,-0.0286 -0.2019,0.6001 -0.5568,1.3583 -1.0701,2.2751 -0.5522,0.9646 -1.3011,2.3419 -2.2368,4.1326 -0.883,1.6461 -1.5168,2.8315 -1.9106,3.5566 -0.6284,-0.0581 -1.2141,-0.0867 -1.7614,-0.0867 -0.7101,0 -1.5358,0.0385 -2.4716,0.1153 z m 0,0.9216 c 0.9358,-0.1151 1.7708,-0.1729 2.5005,-0.1729 2.3085,0 4.0031,0.4943 5.0924,1.4782 0.8351,0.7583 1.2529,1.7521 1.2529,2.9807 0,2.9999 -1.8864,4.4971 -5.6539,4.4971 -0.9026,0 -1.4831,-0.0192 -1.7473,-0.0575 -0.4751,-0.0624 -0.8113,-0.2208 -1.008,-0.4609 -0.216,-0.2543 -0.3549,-0.7821 -0.4079,-1.5789 -0.0193,-0.3456 -0.0287,-1.0701 -0.0287,-2.1694 z M 86.288,114.2819 c 0.5998,0.0575 1.0077,0.1199 1.224,0.1967 0.3359,0.1105 0.5809,0.3024 0.7294,0.576 0.1967,0.2976 0.3217,0.8113 0.3648,1.5313 0.0286,0.4124 0.0431,1.2095 0.0431,2.3898 v 10.19 c 0,1.5358 -0.0193,2.4767 -0.0576,2.8126 -0.0334,0.3455 -0.1343,0.6576 -0.2928,0.9408 -0.1681,0.2735 -0.4847,0.4654 -0.9405,0.5757 -0.1536,0.0289 -0.5712,0.0865 -1.2526,0.1681 -0.1491,0.0289 -0.226,0.1392 -0.226,0.3263 0,0.2066 0.0769,0.3072 0.226,0.3072 1.5933,-0.0958 2.6878,-0.144 3.2876,-0.144 0.6863,0 1.7518,0.0482 3.1915,0.144 0.197,0 0.2979,-0.1006 0.2979,-0.3072 0,-0.1871 -0.0961,-0.2974 -0.2834,-0.3263 -0.6526,-0.0816 -1.0656,-0.1536 -1.2337,-0.2112 -0.3404,-0.1105 -0.5947,-0.288 -0.7769,-0.5326 -0.1781,-0.2979 -0.2835,-0.8158 -0.3218,-1.5455 -0.0193,-0.3121 -0.0289,-1.0465 -0.0289,-2.2079 v -10.19 c 0,-1.6508 0.0145,-2.6489 0.0434,-3.0092 0.038,-0.3549 0.1292,-0.6574 0.2829,-0.9119 0.1681,-0.2926 0.4702,-0.4893 0.9119,-0.6046 0.2256,-0.0576 0.629,-0.1106 1.2098,-0.1681 0.1967,-0.0287 0.2925,-0.1344 0.2925,-0.3218 0,-0.1868 -0.0912,-0.2829 -0.278,-0.2829 -1.3298,0.0768 -2.429,0.1106 -3.293,0.1106 -0.8252,0 -1.8621,-0.0338 -3.1196,-0.1106 -0.1678,0 -0.2545,0.0961 -0.2545,0.2829 0,0.1874 0.0867,0.2931 0.2545,0.3218 z m 18.6979,7.8139 -0.0989,6e-4 h 0.0989 z m 2.0787,0.004 v 0.891 h -0.5514 l 0.3748,0.0172 -1.5886,4.5117 c -0.2352,0.6624 -0.5711,1.622 -0.9983,2.88 -0.3215,0.9164 -0.5474,1.5644 -0.6767,1.9389 -0.1295,-0.3938 -0.3937,-1.1376 -0.7871,-2.232 -0.432,-1.1999 -0.7345,-2.0543 -0.9168,-2.5583 l -1.603,-4.5403 0.4224,-0.0172 h -0.2083 -0.2971 v -0.891 h -0.2971 v -0.1536 l -1.2325,-3.4019 c -0.5091,-1.387 -0.7634,-2.3808 -0.7634,-2.9806 0,-0.216 0.029,-0.3934 0.0865,-0.5377 0.1295,-0.2781 0.3889,-0.4703 0.7727,-0.5757 0.1778,-0.0482 0.595,-0.1007 1.2527,-0.1681 0.1967,-0.019 0.2928,-0.1248 0.2928,-0.3218 0,-0.1868 -0.0961,-0.2829 -0.2928,-0.2829 -1.1087,0.0576 -2.0637,0.0862 -2.8701,0.0862 -1.0126,0 -2.0157,-0.0286 -3.0093,-0.0862 -0.1681,0 -0.2543,0.0961 -0.2543,0.2829 0,0.1874 0.0862,0.2931 0.2543,0.3218 0.8637,0.1105 1.4684,0.3696 1.8142,0.7727 0.3118,0.3552 0.8399,1.5551 1.5885,3.5952 l 3.3214,9.0232 c 1.2433,3.3741 2.0205,5.5341 2.3326,6.4794 l 1.1665,0.5474 c 0.0861,0 0.1536,-0.0819 0.2109,-0.2404 1.3104,-4.0169 2.0831,-6.3306 2.3042,-6.94 l 3.2491,-9.0907 c 0.6577,-1.8284 1.1424,-2.9614 1.4641,-3.403 0.2064,-0.2877 0.4992,-0.4848 0.8878,-0.5902 0.2016,-0.0575 0.576,-0.1055 1.1087,-0.1536 0.1873,-0.019 0.2783,-0.1248 0.2783,-0.3218 0,-0.1868 -0.091,-0.2829 -0.2783,-0.2829 -1.368,0.0768 -2.467,0.1106 -3.2925,0.1106 -0.7968,0 -1.8575,-0.0338 -3.1918,-0.1106 -0.1874,0 -0.2784,0.0961 -0.2784,0.2829 0,0.197 0.091,0.3028 0.2784,0.3218 1.1906,0.1009 1.872,0.341 2.0401,0.7151 0.0768,0.173 0.1148,0.3697 0.1148,0.5902 0,0.4516 -0.2302,1.3105 -0.6908,2.5778 l -1.2402,3.4779 v 0.4566 z m -4.7517,-0.003 h 0.297 0.1284 l -0.4254,-0.004 z m 16.6512,9.3779 h -0.2497 l 0.0238,-12.4986 c 0,-2.1548 0.1154,-3.4409 0.341,-3.8633 0.2257,-0.4609 0.8881,-0.7393 1.9967,-0.8305 0.1681,-0.0287 0.2495,-0.1344 0.2495,-0.3218 0,-0.1868 -0.0913,-0.2829 -0.2787,-0.2829 -1.6123,0.0768 -2.5772,0.1106 -2.8987,0.1106 -0.7007,0 -1.6605,-0.0338 -2.8797,-0.1106 -0.1681,0 -0.2545,0.0961 -0.2545,0.2829 0,0.197 0.0864,0.3028 0.2545,0.3218 0.5516,0.0481 0.9357,0.1199 1.152,0.2256 0.2639,0.1202 0.4896,0.3314 0.6764,0.6338 0.2497,0.4173 0.3985,1.6988 0.4322,3.8344 l 0.0862,10.1611 c 0,0.4513 0,0.7586 0,0.9309 0,1.349 -0.1151,2.2178 -0.3503,2.6113 -0.3504,0.5615 -1.08,0.8926 -2.1932,0.9839 -0.1874,0.0289 -0.2835,0.1437 -0.2835,0.3504 0,0.1873 0.0961,0.2831 0.2835,0.2831 0.9357,-0.0575 1.6461,-0.0864 2.1356,-0.0864 0.7489,0 1.3825,0.01 1.9006,0.0289 0.6146,-1.08 1.368,-2.2414 2.2462,-3.4846 l 7.1994,-10.372 c 0.9842,-1.4159 1.973,-2.8511 2.9662,-4.3149 l -0.0238,4.6942 0.0527,8.3752 c 0,2.0832 -0.144,3.331 -0.4368,3.7534 -0.1967,0.2832 -0.451,0.4751 -0.7727,0.576 -0.2591,0.0961 -0.6764,0.1581 -1.2478,0.1967 -0.1537,0.0193 -0.2257,0.1295 -0.2257,0.3263 0,0.2066 0.082,0.3072 0.2498,0.3072 1.7852,-0.0768 2.7691,-0.1105 2.9565,-0.1105 0.4365,0 1.3966,0.0337 2.8653,0.1105 0.216,0 0.3265,-0.0958 0.3265,-0.2831 0,-0.2112 -0.1105,-0.3311 -0.3265,-0.3504 -0.5806,-0.053 -0.974,-0.1247 -1.1807,-0.2112 -0.2063,-0.0816 -0.3841,-0.2398 -0.5329,-0.4751 -0.2928,-0.4799 -0.4558,-1.7566 -0.4941,-3.8398 l -0.168,-10.1611 c -0.0287,-0.7582 -0.0431,-1.5644 -0.0431,-2.4139 0,-0.8255 0.0144,-1.7853 0.0431,-2.8846 -0.552,-0.3262 -0.8544,-0.4895 -0.8975,-0.4895 -0.0675,0 -0.1344,0.0479 -0.1967,0.1392 -0.4224,0.7151 -1.5647,2.4046 -3.4316,5.0731 z m 29.4313,3.2831 c 3.187,0 5.726,-1.1282 7.6218,-3.3886 1.6413,-1.9536 2.4576,-4.3968 2.4576,-7.3193 0,-3.3792 -1.0655,-6.1005 -3.2062,-8.1644 -1.8624,-1.7807 -4.176,-2.6688 -6.9307,-2.6688 -3.168,0 -5.7212,1.1378 -7.6652,3.4126 -1.6846,1.9871 -2.5296,4.43 -2.5296,7.3245 0,3.3259 1.1043,6.0281 3.3071,8.1062 1.9103,1.8 4.2237,2.6978 6.9452,2.6978 z m 0,-0.864 c -2.5583,0 -4.6315,-1.0319 -6.2155,-3.0912 -1.3873,-1.8139 -2.0832,-4.0652 -2.0832,-6.7527 0,-3.1918 0.8688,-5.707 2.6016,-7.5549 1.4928,-1.5888 3.3693,-2.3854 5.6396,-2.3854 2.5869,0 4.6459,1.027 6.1721,3.0765 1.3439,1.7855 2.0112,4.0413 2.0112,6.7677 0,3.2012 -0.8546,5.7209 -2.5586,7.5691 -1.4734,1.5789 -3.3258,2.3709 -5.5672,2.3709 z m 39.3474,0.115 c 0.072,-1.0607 0.2209,-2.611 0.4465,-4.6459 0.01,-0.0482 0.0144,-0.0961 0.0144,-0.1392 0,-0.1344 -0.0768,-0.2208 -0.24,-0.2687 -0.0528,-0.01 -0.1058,-0.0145 -0.1534,-0.0145 -0.1205,0 -0.216,0.0958 -0.2786,0.2832 -0.6001,1.5695 -1.4063,2.7212 -2.4191,3.4557 -1.0511,0.7727 -2.4429,1.1568 -4.1755,1.1568 -2.4287,0 -4.3823,-1.0173 -5.8507,-3.0478 -1.3056,-1.7997 -1.9536,-4.051 -1.9536,-6.7484 0,-2.8846 0.8206,-5.2362 2.4718,-7.0507 1.4638,-1.6126 3.2831,-2.419 5.4573,-2.419 1.891,0 3.4942,0.4271 4.8092,1.2815 1.0222,0.6673 1.9293,1.6322 2.7261,2.899 0.0865,0.1485 0.1777,0.2253 0.2832,0.2253 0.0674,0 0.1443,-0.0238 0.2398,-0.0717 0.1491,-0.072 0.2211,-0.1632 0.2211,-0.2642 0,-0.0765 -0.0337,-0.1726 -0.1106,-0.2829 -1.8575,-3.4268 -4.5978,-5.1406 -8.2267,-5.1406 -3.0475,0 -5.4955,1.1378 -7.353,3.4126 -1.6127,1.9778 -2.4191,4.43 -2.4191,7.3531 0,3.35 1.0275,6.0426 3.0818,8.0776 1.7997,1.7807 4.0411,2.6688 6.734,2.6688 1.2285,0 2.3417,-0.1247 3.3449,-0.3744 1.08,-0.2687 1.8961,-0.4031 2.448,-0.4031 0.2928,0 0.5904,0.0193 0.9022,0.0575 z m 14.0199,0.749 c 3.187,0 5.726,-1.1282 7.6218,-3.3886 1.6415,-1.9536 2.4576,-4.3968 2.4576,-7.3193 0,-3.3792 -1.0655,-6.1005 -3.2062,-8.1644 -1.8624,-1.7807 -4.1757,-2.6688 -6.9305,-2.6688 -3.168,0 -5.7214,1.1378 -7.6651,3.4126 -1.6846,1.9871 -2.5297,4.43 -2.5297,7.3245 0,3.3259 1.1041,6.0281 3.3072,8.1062 1.91,1.8 4.2236,2.6978 6.9449,2.6978 z m 0,-0.864 c -2.5583,0 -4.6315,-1.0319 -6.2155,-3.0912 -1.387,-1.8139 -2.0829,-4.0652 -2.0829,-6.7527 0,-3.1918 0.8688,-5.707 2.6013,-7.5549 1.4928,-1.5888 3.3693,-2.3854 5.6398,-2.3854 2.5867,0 4.6457,1.027 6.1719,3.0765 1.3442,1.7855 2.0112,4.0413 2.0112,6.7677 0,3.2012 -0.8544,5.7209 -2.5583,7.5691 -1.4734,1.5789 -3.3261,2.3709 -5.5675,2.3709 z m 24.6223,0.3455 c 0.0865,-1.4641 0.1967,-2.9565 0.341,-4.483 0.005,-0.0383 0.009,-0.0624 0.009,-0.0717 0,-0.1202 -0.0961,-0.1967 -0.2928,-0.2256 -0.0287,0 -0.0528,0 -0.072,0 -0.1392,0 -0.2254,0.072 -0.2498,0.2111 -0.2925,1.4687 -0.9261,2.5725 -1.9006,3.3117 -0.7773,0.5902 -1.7039,0.8833 -2.7833,0.8833 -1.3972,0 -2.4529,-0.4226 -3.1632,-1.2625 -0.5471,-0.6384 -0.8161,-1.4253 -0.8161,-2.3616 0,-0.9357 0.2404,-1.7084 0.7152,-2.3179 0.5184,-0.6576 1.3776,-1.2866 2.5871,-1.8961 l 1.4497,-0.7151 c 1.7419,-0.8734 2.9755,-1.656 3.7003,-2.3468 1.0848,-1.0562 1.6271,-2.2896 1.6271,-3.6958 0,-1.7329 -0.4609,-3.115 -1.3918,-4.1565 -1.1231,-1.2623 -2.8752,-1.8961 -5.2557,-1.8961 -1.6226,0 -3.259,0.3217 -4.9099,0.9697 -0.3935,1.3057 -0.7441,2.856 -1.0514,4.6557 -0.01,0.0241 -0.0142,0.0527 -0.0142,0.0816 0,0.1055 0.0862,0.1726 0.2637,0.2112 0.0578,0.009 0.1057,0.0142 0.1443,0.0142 0.1006,0 0.1822,-0.0672 0.2349,-0.1968 0.5571,-1.6364 1.3729,-2.8893 2.4622,-3.7482 0.9457,-0.7489 2.0064,-1.1231 3.1774,-1.1231 1.6608,0 2.9086,0.5037 3.7389,1.5165 0.6193,0.7487 0.9312,1.6416 0.9312,2.6686 0,1.2912 -0.4272,2.3853 -1.2816,3.2734 -0.6384,0.6574 -1.6557,1.3391 -3.062,2.0495 l -1.2384,0.6332 c -1.4925,0.7489 -2.558,1.4689 -3.1918,2.1648 -0.8541,0.9168 -1.2813,1.9871 -1.2813,3.2157 0,1.5361 0.5423,2.7839 1.6316,3.7485 1.0321,0.9167 2.3998,1.3776 4.1037,1.3776 0.7872,0 1.5072,-0.0961 2.1549,-0.288 0.6004,-0.1729 1.2291,-0.259 1.8964,-0.259 0.3118,0 0.5709,0.0192 0.7869,0.0575 z m 21.8673,0.0575 c 0.1103,-1.5502 0.2877,-3.0957 0.5326,-4.6459 0.009,-0.0482 0.0145,-0.0817 0.0145,-0.1106 0,-0.1151 -0.0913,-0.1919 -0.2687,-0.2398 -0.0624,-0.01 -0.1154,-0.0145 -0.1537,-0.0145 -0.1006,0 -0.1774,0.0769 -0.2256,0.2257 -0.1295,0.6191 -0.3696,1.2526 -0.7152,1.891 -0.3311,0.6191 -0.667,1.0462 -1.0128,1.2812 -0.6477,0.4609 -1.8573,0.6914 -3.6283,0.6914 l -0.6767,0.0145 c -0.8594,0 -1.4111,-0.1823 -1.6415,-0.5471 -0.1874,-0.2543 -0.3025,-0.7583 -0.341,-1.5072 -0.009,-0.216 -0.0142,-0.9457 -0.0142,-2.1937 v -10.1657 c 0,-1.5644 0.0286,-2.5628 0.0862,-2.9948 0.0479,-0.3356 0.1635,-0.6429 0.3503,-0.9263 0.1778,-0.288 0.4896,-0.4893 0.9312,-0.6046 0.2497,-0.0672 0.6769,-0.12 1.2767,-0.1681 0.1968,-0.0287 0.298,-0.1344 0.298,-0.3218 0,-0.1868 -0.0961,-0.2829 -0.2835,-0.2829 -1.6415,0.0768 -2.774,0.1106 -3.403,0.1106 -0.6477,0 -1.7133,-0.0338 -3.206,-0.1106 -0.1873,0 -0.2786,0.0961 -0.2786,0.2829 0,0.1874 0.0913,0.2931 0.2786,0.3218 0.6095,0.0575 1.0418,0.125 1.296,0.2111 0.3167,0.1199 0.5471,0.3073 0.6863,0.5616 0.2543,0.4609 0.3793,1.7663 0.3793,3.9211 v 10.1657 c 0,1.5315 -0.0145,2.4672 -0.0386,2.8128 -0.0383,0.3841 -0.1343,0.6962 -0.2832,0.9263 -0.2066,0.3314 -0.9504,0.4944 -2.2368,0.4944 -1.7708,0 -2.9707,-0.2591 -3.5994,-0.7775 -0.6721,-0.4655 -1.2433,-1.5072 -1.6991,-3.115 -0.0482,-0.1293 -0.1298,-0.1968 -0.2398,-0.1968 -0.0482,0 -0.106,0.009 -0.1681,0.0287 -0.1636,0.0388 -0.2404,0.1057 -0.2404,0.2111 0,0.0193 0.005,0.0531 0.0145,0.0961 0.2591,1.6991 0.4609,3.259 0.6049,4.6749 2.7261,-0.0768 5.6398,-0.1105 8.7304,-0.1105 3.2063,0 6.1631,0.0337 8.8747,0.1105 z m 12.0756,-12.268 -0.03,0.002 v 0.3665 h -0.2971 v 0.5939 h -0.3838 l 0.375,0.0172 -1.5885,4.5117 c -0.2353,0.6624 -0.5715,1.622 -0.9987,2.88 -0.3211,0.9164 -0.5471,1.5644 -0.6766,1.9389 -0.1293,-0.3938 -0.3935,-1.1376 -0.7869,-2.232 -0.4323,-1.1999 -0.7345,-2.0543 -0.917,-2.5583 l -1.6027,-4.5403 0.4221,-0.0172 h -0.3762 v -0.2968 h -0.2971 v -0.6608 l -0.0995,-0.004 -1.2622,-3.4844 c -0.5089,-1.387 -0.7631,-2.3808 -0.7631,-2.9806 0,-0.216 0.0286,-0.3934 0.0861,-0.5377 0.1299,-0.2781 0.389,-0.4703 0.7728,-0.5757 0.1777,-0.0482 0.5952,-0.1007 1.2529,-0.1681 0.1967,-0.019 0.2928,-0.1248 0.2928,-0.3218 0,-0.1868 -0.0961,-0.2829 -0.2928,-0.2829 -1.1086,0.0576 -2.0639,0.0862 -2.8701,0.0862 -1.0128,0 -2.0157,-0.0286 -3.0095,-0.0862 -0.1681,0 -0.2543,0.0961 -0.2543,0.2829 0,0.1874 0.0862,0.2931 0.2543,0.3218 0.864,0.1105 1.4686,0.3696 1.8144,0.7727 0.3118,0.3552 0.8396,1.5551 1.5886,3.5952 l 3.321,9.0232 c 1.2436,3.3741 2.0208,5.5341 2.3329,6.4794 l 1.1662,0.5474 c 0.0862,0 0.1537,-0.0819 0.2112,-0.2404 1.3105,-4.0169 2.0832,-6.3306 2.304,-6.94 l 3.2493,-9.0907 c 0.6577,-1.8284 1.1424,-2.9614 1.4641,-3.403 0.2061,-0.2877 0.4989,-0.4848 0.8876,-0.5902 0.2018,-0.0575 0.576,-0.1055 1.1089,-0.1536 0.1871,-0.019 0.2783,-0.1248 0.2783,-0.3218 0,-0.1868 -0.0912,-0.2829 -0.2783,-0.2829 -1.368,0.0768 -2.4673,0.1106 -3.2925,0.1106 -0.7971,0 -1.8575,-0.0338 -3.1918,-0.1106 -0.1873,0 -0.2786,0.0961 -0.2786,0.2829 0,0.197 0.0913,0.3028 0.2786,0.3218 1.1903,0.1009 1.8717,0.341 2.0398,0.7151 0.0769,0.173 0.1151,0.3697 0.1151,0.5902 0,0.4516 -0.2304,1.3105 -0.6911,2.5778 l -1.3776,3.8634 z" /></clipPath><linearGradient
       id="linearGradient32"
       spreadMethod="pad"
       gradientUnits="userSpaceOnUse"
       y2="123.97"
       x2="267"
       y1="123.97"
       x1="23.02"><stop
         id="stop20"
         offset="0"
         style="stop-opacity:1;stop-color:#dfbf68" /><stop
         id="stop22"
         offset="0.27"
         style="stop-opacity:1;stop-color:#a6802f" /><stop
         id="stop24"
         offset="0.47"
         style="stop-opacity:1;stop-color:#dcbd62" /><stop
         id="stop26"
         offset="0.69"
         style="stop-opacity:1;stop-color:#e3c565" /><stop
         id="stop28"
         offset="0.82"
         style="stop-opacity:1;stop-color:#fceb83" /><stop
         id="stop30"
         offset="1"
         style="stop-opacity:1;stop-color:#ebd476" /></linearGradient><clipPath
       id="clipPath48"
       clipPathUnits="userSpaceOnUse"><path
         style="clip-rule:evenodd"
         id="path46"
         d="m 144.2174,192.0427 c 0.7849,0.2784 1.5693,0.557 2.4869,0.7251 0.9172,0.1684 1.9669,0.2271 2.988,0.1976 1.0207,-0.0292 2.012,-0.1457 3.0327,-0.379 1.0208,-0.2333 2.0707,-0.5834 2.8582,-0.9335 0.7875,-0.3498 1.3125,-0.6998 1.8374,-1.0496 0.8164,0.9915 1.6334,1.9831 2.45,2.9747 0.1165,-4.4329 0.2333,-8.866 0.3498,-13.2988 -0.7583,0 -1.5165,0 -2.2748,0 -0.1752,1.2833 -0.3501,2.5665 -0.7291,3.7619 -0.3792,1.1959 -0.9623,2.3043 -1.6914,3.2663 -0.7291,0.9627 -1.6041,1.7793 -2.4792,2.3043 -0.8748,0.525 -1.7498,0.758 -2.6246,0.8748 -0.8747,0.1168 -1.7501,0.1168 -2.5373,-0.0292 -0.7874,-0.1457 -1.4873,-0.4374 -2.1288,-0.7583 -0.6418,-0.3206 -1.2251,-0.6707 -1.8085,-1.0207 -0.4085,0.9918 -0.8167,1.9831 -1.2248,2.9746 0.4983,0.1299 0.9972,0.26 1.4955,0.3898" /></clipPath><linearGradient
       id="linearGradient56"
       spreadMethod="pad"
       gradientUnits="userSpaceOnUse"
       y2="186.92999"
       x2="160.22"
       y1="186.92999"
       x1="142.72"><stop
         id="stop50"
         offset="0"
         style="stop-opacity:1;stop-color:#dfbf68" /><stop
         id="stop52"
         offset="0.5"
         style="stop-opacity:1;stop-color:#f6e280" /><stop
         id="stop54"
         offset="1"
         style="stop-opacity:1;stop-color:#b38e3a" /></linearGradient><clipPath
       id="clipPath66"
       clipPathUnits="userSpaceOnUse"><path
         style="clip-rule:evenodd"
         id="path64"
         d="m 138.1723,202.8523 c 0.6998,0 1.3997,0 2.0999,0 3.8497,-10.5576 7.6991,-21.1152 9.799,-26.6272 2.0997,-5.512 2.45,-5.9785 2.8582,-6.3578 0.4082,-0.379 0.8748,-0.6707 1.3122,-0.8748 0.4376,-0.2041 0.8458,-0.3209 1.1375,-0.3793 0.2917,-0.0584 0.4666,-0.0584 0.6418,-0.0584 0.0581,-0.5831 0.1165,-1.1664 0.1749,-1.7495 -4.4331,0 -8.8659,0 -13.299,0 0,0.6415 0,1.2832 0,1.9247 0.5249,0 1.0499,0 1.6333,0.0292 0.5831,0.0292 1.2248,0.0876 1.6625,0.2917 0.4371,0.2041 0.6707,0.5542 0.6123,1.1665 -0.0584,0.6125 -0.4085,1.4876 -1.9834,5.7747 -1.5747,4.2871 -4.3744,11.9866 -7.1742,19.6858 -2.3916,-6.1246 -4.7829,-12.2491 -6.1246,-15.7488 -1.3413,-3.4996 -1.6333,-4.3747 -1.779,-5.0164 -0.146,-0.6415 -0.146,-1.0497 -0.0581,-1.3414 0.0873,-0.2917 0.2622,-0.4666 0.6123,-0.6418 0.3498,-0.1749 0.8748,-0.3498 1.3705,-0.4957 0.4958,-0.1457 0.9627,-0.2625 1.342,-0.3206 0.379,-0.0584 0.6706,-0.0584 0.962,-0.0584 -0.0581,1.3997 -0.1167,2.7998 -0.1167,4.1706 0,1.3705 0.0586,2.7122 0.2335,3.8202 0.1749,1.1084 0.4666,1.9834 0.6707,2.5665 0.2044,0.5834 0.3209,0.8751 0.4377,1.1665 1.633,0 3.2663,0 4.8994,0 0.6417,-1.5166 1.2832,-3.0328 1.925,-4.5493 0,-0.2336 0,-0.4669 0,-0.7002 -1.3998,0 -2.7998,0 -4.1998,0 0,-0.2333 0,-0.4663 0.2335,-0.9913 0.2333,-0.5249 0.6996,-1.3419 0.9913,-1.8377 0.2917,-0.4958 0.4085,-0.6707 0.4666,-1.1664 0.0584,-0.4958 0.0584,-1.3125 0.2044,-2.2748 0.1457,-0.9624 0.4374,-2.0707 0.7583,-3.0334 0.3208,-0.9621 0.6709,-1.7787 1.2248,-2.6246 0.5542,-0.8456 1.3122,-1.7206 2.0123,-2.4208 0.6999,-0.6996 1.3417,-1.2245 2.0415,-1.633 0.7002,-0.4082 1.4582,-0.6999 2.158,-0.8748 0.7002,-0.1749 1.3417,-0.2333 2.0418,-0.2333 0.6999,0 1.4579,0.0584 2.304,0.2333 0.8456,0.1749 1.7788,0.4666 2.5954,0.8748 0.8167,0.4085 1.5166,0.9334 2.1875,1.6625 0.6707,0.7291 1.3122,1.6622 1.8083,2.5373 0.4955,0.8751 0.8455,1.6914 1.1953,2.5081 -0.0581,-1.2833 -0.1165,-2.5665 -0.2622,-3.7624 -0.146,-1.1957 -0.3793,-2.3037 -1.4,-3.2953 -1.0208,-0.9916 -2.829,-1.8666 -4.4039,-2.4497 -1.5747,-0.5834 -2.9163,-0.8751 -4.3744,-0.9627 -1.4582,-0.0873 -3.0331,0.0292 -4.5204,0.4082 -1.4874,0.3793 -2.8874,1.0211 -4.0539,1.7209 -1.1667,0.6999 -2.0999,1.4582 -2.8873,2.2457 -0.7875,0.7874 -1.4293,1.6041 -1.9248,2.4497 -0.4957,0.8458 -0.8458,1.7209 -1.1083,2.4207 -0.2625,0.6999 -0.4374,1.2249 -0.525,1.5458 -0.0876,0.3206 -0.0876,0.4374 -0.0876,0.5539 -3.8497,0.0584 -7.6992,0.1168 -11.5489,0.1751 0,0.6415 0,1.2833 0,1.9248 0.2917,-0.0584 0.5831,-0.1165 0.9332,-0.0292 0.35,0.0876 0.7582,0.3209 1.2248,0.729 0.4666,0.4082 0.9916,0.9919 1.4876,1.8375 0.4958,0.8458 0.9621,1.9542 1.7496,3.7916 0.7874,1.8371 1.8958,4.4036 3.5875,8.5739 1.6914,4.1706 3.9662,9.9451 6.2411,15.7198" /></clipPath><linearGradient
       id="linearGradient88"
       spreadMethod="pad"
       gradientUnits="userSpaceOnUse"
       y2="180.8"
       x2="160.05"
       y1="180.8"
       x1="122.95"><stop
         id="stop68"
         offset="0"
         style="stop-opacity:1;stop-color:#b89551" /><stop
         id="stop70"
         offset="0.12"
         style="stop-opacity:1;stop-color:#d1b65f" /><stop
         id="stop72"
         offset="0.23"
         style="stop-opacity:1;stop-color:#e9d073" /><stop
         id="stop74"
         offset="0.35"
         style="stop-opacity:1;stop-color:#f8e888" /><stop
         id="stop76"
         offset="0.47"
         style="stop-opacity:1;stop-color:#f3da76" /><stop
         id="stop78"
         offset="0.56"
         style="stop-opacity:1;stop-color:#e4c666" /><stop
         id="stop80"
         offset="0.65"
         style="stop-opacity:1;stop-color:#dabb60" /><stop
         id="stop82"
         offset="0.77"
         style="stop-opacity:1;stop-color:#c0a146" /><stop
         id="stop84"
         offset="0.89"
         style="stop-opacity:1;stop-color:#b18b38" /><stop
         id="stop86"
         offset="1"
         style="stop-opacity:1;stop-color:#dfbf68" /></linearGradient></defs><g
     transform="matrix(1.3333333,0,0,-1.3333333,0,384)"
     id="g10"><g
       id="g12"><g
         clip-path="url(#clipPath18)"
         id="g14"><path
           id="path34"
           style="fill:url(#linearGradient32);fill-rule:evenodd;stroke:none"
           d="m 36.3285,122.0284 -0.2381,0.0133 v 0.9136 h -1.9888 c 0.766,0.009 1.3964,0.0258 1.891,0.0524 l -1.5885,4.5117 c -0.2356,0.6624 -0.5715,1.622 -0.9987,2.88 -0.3211,0.9164 -0.547,1.5644 -0.6766,1.9389 -0.1292,-0.3938 -0.3934,-1.1376 -0.7869,-2.232 -0.4323,-1.1999 -0.7344,-2.0543 -0.917,-2.5583 l -1.603,-4.5403 0.4323,-0.0175 v -0.0349 h -0.5939 v -0.894 h 0.5939 v -9e-4 c -0.284,-0.009 -0.5451,-0.0198 -0.7826,-0.032 l -1.2623,-3.4844 c -0.5088,-1.387 -0.7631,-2.3808 -0.7631,-2.9806 0,-0.216 0.0286,-0.3934 0.0862,-0.5377 0.1298,-0.2781 0.3889,-0.4703 0.7727,-0.5757 0.1777,-0.0482 0.5953,-0.1007 1.2529,-0.1681 0.1967,-0.019 0.2928,-0.1248 0.2928,-0.3218 0,-0.1868 -0.0961,-0.2829 -0.2928,-0.2829 -1.1089,0.0576 -2.0639,0.0862 -2.8701,0.0862 -1.0128,0 -2.016,-0.0286 -3.0095,-0.0862 -0.1681,0 -0.2543,0.0961 -0.2543,0.2829 0,0.1874 0.0862,0.2931 0.2543,0.3218 0.864,0.1105 1.4686,0.3696 1.8145,0.7727 0.3118,0.3552 0.8396,1.5551 1.5885,3.5952 l 3.3211,9.0232 c 1.2435,3.3741 2.0208,5.5341 2.3329,6.4794 l 1.1661,0.5474 c 0.0862,0 0.1537,-0.0819 0.2112,-0.2404 1.3105,-4.0169 2.0832,-6.3306 2.304,-6.94 l 3.2494,-9.0907 c 0.6576,-1.8284 1.1423,-2.9614 1.4638,-3.403 0.2064,-0.2877 0.4992,-0.4848 0.8878,-0.5902 0.2018,-0.0575 0.576,-0.1055 1.1086,-0.1536 0.1874,-0.019 0.2787,-0.1248 0.2787,-0.3218 0,-0.1868 -0.0913,-0.2829 -0.2787,-0.2829 -1.3677,0.0768 -2.467,0.1106 -3.2921,0.1106 -0.7971,0 -1.8576,-0.0338 -3.1918,-0.1106 -0.1874,0 -0.2787,0.0961 -0.2787,0.2829 0,0.197 0.0913,0.3028 0.2787,0.3218 1.1902,0.1009 1.8717,0.341 2.0398,0.7151 0.0768,0.173 0.1151,0.3697 0.1151,0.5902 0,0.4516 -0.2305,1.3105 -0.6911,2.5778 z m 16.8996,12.3256 c 3.9595,0 6.9069,-1.1469 8.8458,-3.4461 1.4828,-1.7711 2.2224,-4.0173 2.2224,-6.7433 0,-3.2063 -0.9794,-5.7597 -2.9376,-7.6652 -1.987,-1.9196 -4.771,-2.8797 -8.3511,-2.8797 -0.1443,0 -1.1475,0.0286 -3.0096,0.0862 -0.0671,0 -0.5615,0.0192 -1.4782,0.0575 -0.504,0.0193 -0.9119,0.0289 -1.2243,0.0289 -0.7484,0 -1.7515,-0.0383 -3.0093,-0.1151 -0.1681,0 -0.2542,0.0961 -0.2542,0.2829 0,0.1874 0.0861,0.2931 0.2542,0.3218 1.0704,0.0768 1.7425,0.3503 2.0257,0.8305 0.2928,0.4748 0.4365,1.766 0.4365,3.8633 v 10.1611 c 0,1.6129 -0.0093,2.5486 -0.0286,2.8128 -0.0289,0.3649 -0.1151,0.6815 -0.2687,0.9406 -0.2064,0.3937 -0.965,0.6528 -2.2751,0.7727 -0.1678,0.0193 -0.2546,0.1295 -0.2546,0.3263 0,0.2066 0.0961,0.3072 0.2835,0.3072 1.3291,-0.0768 2.323,-0.1105 2.9806,-0.1105 0.7296,0 1.6223,0.0241 2.6685,0.0816 1.2572,0.0576 2.3803,0.0865 3.3741,0.0865 z m -4.8909,-5.2126 v -10.1702 c 0,-1.2577 0.0193,-2.035 0.0576,-2.3326 0.053,-0.5567 0.2018,-0.9839 0.4323,-1.296 0.2925,-0.3838 0.8781,-0.6287 1.7614,-0.7297 0.4317,-0.0476 1.2186,-0.072 2.361,-0.072 3.3361,0 5.8413,1.0993 7.5067,3.2931 1.2767,1.6701 1.9151,3.7482 1.9151,6.2441 0,2.9183 -0.9119,5.2413 -2.7309,6.9783 -1.6557,1.584 -3.8206,2.376 -6.4939,2.376 -1.4925,0 -2.5294,-0.0479 -3.1246,-0.1391 -0.6526,-0.1055 -1.0704,-0.288 -1.2479,-0.5517 -0.2063,-0.2979 -0.3407,-0.792 -0.3937,-1.4734 -0.0286,-0.3841 -0.0431,-1.0945 -0.0431,-2.1268 z m 23.1871,-5.4137 v -4.752 c 0,-1.6508 0.0145,-2.6444 0.0431,-2.9948 0.0338,-0.3455 0.1299,-0.6528 0.2784,-0.9263 0.2256,-0.4317 0.9553,-0.6911 2.1934,-0.7727 0.1679,-0.019 0.2546,-0.1248 0.2546,-0.3218 0,-0.1868 -0.0961,-0.2829 -0.2835,-0.2829 -1.4879,0.0768 -2.5866,0.1106 -3.2876,0.1106 -0.8637,0 -1.9054,-0.0338 -3.1246,-0.1106 -0.1871,0 -0.2781,0.0961 -0.2781,0.2829 0,0.1874 0.091,0.2931 0.2781,0.3218 1.0993,0.1105 1.7518,0.3696 1.9582,0.7727 0.269,0.4609 0.4081,1.7663 0.4081,3.9211 v 10.19 c 0,1.5358 -0.0192,2.4716 -0.0578,2.7981 -0.0383,0.3456 -0.1343,0.6574 -0.2973,0.9264 -0.2257,0.3937 -0.9939,0.6528 -2.3038,0.7727 -0.1681,0.0289 -0.2545,0.1392 -0.2545,0.3263 0,0.2066 0.0864,0.3072 0.2545,0.3072 1.3295,-0.0768 2.4188,-0.1105 3.2636,-0.1105 0.197,0 0.8302,0.0193 1.9102,0.053 0.845,0.0575 1.8335,0.0862 2.9662,0.0862 2.4287,0 4.2333,-0.5709 5.4142,-1.7133 0.9164,-0.9025 1.3773,-2.0781 1.3773,-3.5325 0,-1.224 -0.4365,-2.2989 -1.3053,-3.2159 -0.8447,-0.8927 -2.0208,-1.5404 -3.5328,-1.9437 1.5746,-3.0334 2.8511,-5.3612 3.8256,-6.9835 0.6384,-1.0942 1.1855,-1.8142 1.6461,-2.1648 0.3265,-0.2398 0.9312,-0.4079 1.8142,-0.4895 0.1873,-0.0287 0.2831,-0.1344 0.2831,-0.3218 0,-0.1868 -0.0958,-0.2829 -0.2831,-0.2829 -0.8737,0.0576 -1.5551,0.0862 -2.0543,0.0862 -0.739,0 -1.2909,-0.009 -1.6557,-0.0286 -0.2019,0.6001 -0.5568,1.3583 -1.0701,2.2751 -0.5522,0.9646 -1.3011,2.3419 -2.2368,4.1326 -0.883,1.6461 -1.5168,2.8315 -1.9106,3.5566 -0.6284,-0.0581 -1.2141,-0.0867 -1.7614,-0.0867 -0.7101,0 -1.5358,0.0385 -2.4716,0.1153 z m 0,0.9216 c 0.9358,-0.1151 1.7708,-0.1729 2.5005,-0.1729 2.3085,0 4.0031,0.4943 5.0924,1.4782 0.8351,0.7583 1.2529,1.7521 1.2529,2.9807 0,2.9999 -1.8864,4.4971 -5.6539,4.4971 -0.9026,0 -1.4831,-0.0192 -1.7473,-0.0575 -0.4751,-0.0624 -0.8113,-0.2208 -1.008,-0.4609 -0.216,-0.2543 -0.3549,-0.7821 -0.4079,-1.5789 -0.0193,-0.3456 -0.0287,-1.0701 -0.0287,-2.1694 z M 86.288,114.2819 c 0.5998,0.0575 1.0077,0.1199 1.224,0.1967 0.3359,0.1105 0.5809,0.3024 0.7294,0.576 0.1967,0.2976 0.3217,0.8113 0.3648,1.5313 0.0286,0.4124 0.0431,1.2095 0.0431,2.3898 v 10.19 c 0,1.5358 -0.0193,2.4767 -0.0576,2.8126 -0.0334,0.3455 -0.1343,0.6576 -0.2928,0.9408 -0.1681,0.2735 -0.4847,0.4654 -0.9405,0.5757 -0.1536,0.0289 -0.5712,0.0865 -1.2526,0.1681 -0.1491,0.0289 -0.226,0.1392 -0.226,0.3263 0,0.2066 0.0769,0.3072 0.226,0.3072 1.5933,-0.0958 2.6878,-0.144 3.2876,-0.144 0.6863,0 1.7518,0.0482 3.1915,0.144 0.197,0 0.2979,-0.1006 0.2979,-0.3072 0,-0.1871 -0.0961,-0.2974 -0.2834,-0.3263 -0.6526,-0.0816 -1.0656,-0.1536 -1.2337,-0.2112 -0.3404,-0.1105 -0.5947,-0.288 -0.7769,-0.5326 -0.1781,-0.2979 -0.2835,-0.8158 -0.3218,-1.5455 -0.0193,-0.3121 -0.0289,-1.0465 -0.0289,-2.2079 v -10.19 c 0,-1.6508 0.0145,-2.6489 0.0434,-3.0092 0.038,-0.3549 0.1292,-0.6574 0.2829,-0.9119 0.1681,-0.2926 0.4702,-0.4893 0.9119,-0.6046 0.2256,-0.0576 0.629,-0.1106 1.2098,-0.1681 0.1967,-0.0287 0.2925,-0.1344 0.2925,-0.3218 0,-0.1868 -0.0912,-0.2829 -0.278,-0.2829 -1.3298,0.0768 -2.429,0.1106 -3.293,0.1106 -0.8252,0 -1.8621,-0.0338 -3.1196,-0.1106 -0.1678,0 -0.2545,0.0961 -0.2545,0.2829 0,0.1874 0.0867,0.2931 0.2545,0.3218 z m 18.6979,7.8139 -0.0989,6e-4 h 0.0989 z m 2.0787,0.004 v 0.891 h -0.5514 l 0.3748,0.0172 -1.5886,4.5117 c -0.2352,0.6624 -0.5711,1.622 -0.9983,2.88 -0.3215,0.9164 -0.5474,1.5644 -0.6767,1.9389 -0.1295,-0.3938 -0.3937,-1.1376 -0.7871,-2.232 -0.432,-1.1999 -0.7345,-2.0543 -0.9168,-2.5583 l -1.603,-4.5403 0.4224,-0.0172 h -0.2083 -0.2971 v -0.891 h -0.2971 v -0.1536 l -1.2325,-3.4019 c -0.5091,-1.387 -0.7634,-2.3808 -0.7634,-2.9806 0,-0.216 0.029,-0.3934 0.0865,-0.5377 0.1295,-0.2781 0.3889,-0.4703 0.7727,-0.5757 0.1778,-0.0482 0.595,-0.1007 1.2527,-0.1681 0.1967,-0.019 0.2928,-0.1248 0.2928,-0.3218 0,-0.1868 -0.0961,-0.2829 -0.2928,-0.2829 -1.1087,0.0576 -2.0637,0.0862 -2.8701,0.0862 -1.0126,0 -2.0157,-0.0286 -3.0093,-0.0862 -0.1681,0 -0.2543,0.0961 -0.2543,0.2829 0,0.1874 0.0862,0.2931 0.2543,0.3218 0.8637,0.1105 1.4684,0.3696 1.8142,0.7727 0.3118,0.3552 0.8399,1.5551 1.5885,3.5952 l 3.3214,9.0232 c 1.2433,3.3741 2.0205,5.5341 2.3326,6.4794 l 1.1665,0.5474 c 0.0861,0 0.1536,-0.0819 0.2109,-0.2404 1.3104,-4.0169 2.0831,-6.3306 2.3042,-6.94 l 3.2491,-9.0907 c 0.6577,-1.8284 1.1424,-2.9614 1.4641,-3.403 0.2064,-0.2877 0.4992,-0.4848 0.8878,-0.5902 0.2016,-0.0575 0.576,-0.1055 1.1087,-0.1536 0.1873,-0.019 0.2783,-0.1248 0.2783,-0.3218 0,-0.1868 -0.091,-0.2829 -0.2783,-0.2829 -1.368,0.0768 -2.467,0.1106 -3.2925,0.1106 -0.7968,0 -1.8575,-0.0338 -3.1918,-0.1106 -0.1874,0 -0.2784,0.0961 -0.2784,0.2829 0,0.197 0.091,0.3028 0.2784,0.3218 1.1906,0.1009 1.872,0.341 2.0401,0.7151 0.0768,0.173 0.1148,0.3697 0.1148,0.5902 0,0.4516 -0.2302,1.3105 -0.6908,2.5778 l -1.2402,3.4779 v 0.4566 z m -4.7517,-0.003 h 0.297 0.1284 l -0.4254,-0.004 z m 16.6512,9.3779 h -0.2497 l 0.0238,-12.4986 c 0,-2.1548 0.1154,-3.4409 0.341,-3.8633 0.2257,-0.4609 0.8881,-0.7393 1.9967,-0.8305 0.1681,-0.0287 0.2495,-0.1344 0.2495,-0.3218 0,-0.1868 -0.0913,-0.2829 -0.2787,-0.2829 -1.6123,0.0768 -2.5772,0.1106 -2.8987,0.1106 -0.7007,0 -1.6605,-0.0338 -2.8797,-0.1106 -0.1681,0 -0.2545,0.0961 -0.2545,0.2829 0,0.197 0.0864,0.3028 0.2545,0.3218 0.5516,0.0481 0.9357,0.1199 1.152,0.2256 0.2639,0.1202 0.4896,0.3314 0.6764,0.6338 0.2497,0.4173 0.3985,1.6988 0.4322,3.8344 l 0.0862,10.1611 c 0,0.4513 0,0.7586 0,0.9309 0,1.349 -0.1151,2.2178 -0.3503,2.6113 -0.3504,0.5615 -1.08,0.8926 -2.1932,0.9839 -0.1874,0.0289 -0.2835,0.1437 -0.2835,0.3504 0,0.1873 0.0961,0.2831 0.2835,0.2831 0.9357,-0.0575 1.6461,-0.0864 2.1356,-0.0864 0.7489,0 1.3825,0.01 1.9006,0.0289 0.6146,-1.08 1.368,-2.2414 2.2462,-3.4846 l 7.1994,-10.372 c 0.9842,-1.4159 1.973,-2.8511 2.9662,-4.3149 l -0.0238,4.6942 0.0527,8.3752 c 0,2.0832 -0.144,3.331 -0.4368,3.7534 -0.1967,0.2832 -0.451,0.4751 -0.7727,0.576 -0.2591,0.0961 -0.6764,0.1581 -1.2478,0.1967 -0.1537,0.0193 -0.2257,0.1295 -0.2257,0.3263 0,0.2066 0.082,0.3072 0.2498,0.3072 1.7852,-0.0768 2.7691,-0.1105 2.9565,-0.1105 0.4365,0 1.3966,0.0337 2.8653,0.1105 0.216,0 0.3265,-0.0958 0.3265,-0.2831 0,-0.2112 -0.1105,-0.3311 -0.3265,-0.3504 -0.5806,-0.053 -0.974,-0.1247 -1.1807,-0.2112 -0.2063,-0.0816 -0.3841,-0.2398 -0.5329,-0.4751 -0.2928,-0.4799 -0.4558,-1.7566 -0.4941,-3.8398 l -0.168,-10.1611 c -0.0287,-0.7582 -0.0431,-1.5644 -0.0431,-2.4139 0,-0.8255 0.0144,-1.7853 0.0431,-2.8846 -0.552,-0.3262 -0.8544,-0.4895 -0.8975,-0.4895 -0.0675,0 -0.1344,0.0479 -0.1967,0.1392 -0.4224,0.7151 -1.5647,2.4046 -3.4316,5.0731 z m 29.4313,3.2831 c 3.187,0 5.726,-1.1282 7.6218,-3.3886 1.6413,-1.9536 2.4576,-4.3968 2.4576,-7.3193 0,-3.3792 -1.0655,-6.1005 -3.2062,-8.1644 -1.8624,-1.7807 -4.176,-2.6688 -6.9307,-2.6688 -3.168,0 -5.7212,1.1378 -7.6652,3.4126 -1.6846,1.9871 -2.5296,4.43 -2.5296,7.3245 0,3.3259 1.1043,6.0281 3.3071,8.1062 1.9103,1.8 4.2237,2.6978 6.9452,2.6978 z m 0,-0.864 c -2.5583,0 -4.6315,-1.0319 -6.2155,-3.0912 -1.3873,-1.8139 -2.0832,-4.0652 -2.0832,-6.7527 0,-3.1918 0.8688,-5.707 2.6016,-7.5549 1.4928,-1.5888 3.3693,-2.3854 5.6396,-2.3854 2.5869,0 4.6459,1.027 6.1721,3.0765 1.3439,1.7855 2.0112,4.0413 2.0112,6.7677 0,3.2012 -0.8546,5.7209 -2.5586,7.5691 -1.4734,1.5789 -3.3258,2.3709 -5.5672,2.3709 z m 39.3474,0.115 c 0.072,-1.0607 0.2209,-2.611 0.4465,-4.6459 0.01,-0.0482 0.0144,-0.0961 0.0144,-0.1392 0,-0.1344 -0.0768,-0.2208 -0.24,-0.2687 -0.0528,-0.01 -0.1058,-0.0145 -0.1534,-0.0145 -0.1205,0 -0.216,0.0958 -0.2786,0.2832 -0.6001,1.5695 -1.4063,2.7212 -2.4191,3.4557 -1.0511,0.7727 -2.4429,1.1568 -4.1755,1.1568 -2.4287,0 -4.3823,-1.0173 -5.8507,-3.0478 -1.3056,-1.7997 -1.9536,-4.051 -1.9536,-6.7484 0,-2.8846 0.8206,-5.2362 2.4718,-7.0507 1.4638,-1.6126 3.2831,-2.419 5.4573,-2.419 1.891,0 3.4942,0.4271 4.8092,1.2815 1.0222,0.6673 1.9293,1.6322 2.7261,2.899 0.0865,0.1485 0.1777,0.2253 0.2832,0.2253 0.0674,0 0.1443,-0.0238 0.2398,-0.0717 0.1491,-0.072 0.2211,-0.1632 0.2211,-0.2642 0,-0.0765 -0.0337,-0.1726 -0.1106,-0.2829 -1.8575,-3.4268 -4.5978,-5.1406 -8.2267,-5.1406 -3.0475,0 -5.4955,1.1378 -7.353,3.4126 -1.6127,1.9778 -2.4191,4.43 -2.4191,7.3531 0,3.35 1.0275,6.0426 3.0818,8.0776 1.7997,1.7807 4.0411,2.6688 6.734,2.6688 1.2285,0 2.3417,-0.1247 3.3449,-0.3744 1.08,-0.2687 1.8961,-0.4031 2.448,-0.4031 0.2928,0 0.5904,0.0193 0.9022,0.0575 z m 14.0199,0.749 c 3.187,0 5.726,-1.1282 7.6218,-3.3886 1.6415,-1.9536 2.4576,-4.3968 2.4576,-7.3193 0,-3.3792 -1.0655,-6.1005 -3.2062,-8.1644 -1.8624,-1.7807 -4.1757,-2.6688 -6.9305,-2.6688 -3.168,0 -5.7214,1.1378 -7.6651,3.4126 -1.6846,1.9871 -2.5297,4.43 -2.5297,7.3245 0,3.3259 1.1041,6.0281 3.3072,8.1062 1.91,1.8 4.2236,2.6978 6.9449,2.6978 z m 0,-0.864 c -2.5583,0 -4.6315,-1.0319 -6.2155,-3.0912 -1.387,-1.8139 -2.0829,-4.0652 -2.0829,-6.7527 0,-3.1918 0.8688,-5.707 2.6013,-7.5549 1.4928,-1.5888 3.3693,-2.3854 5.6398,-2.3854 2.5867,0 4.6457,1.027 6.1719,3.0765 1.3442,1.7855 2.0112,4.0413 2.0112,6.7677 0,3.2012 -0.8544,5.7209 -2.5583,7.5691 -1.4734,1.5789 -3.3261,2.3709 -5.5675,2.3709 z m 24.6223,0.3455 c 0.0865,-1.4641 0.1967,-2.9565 0.341,-4.483 0.005,-0.0383 0.009,-0.0624 0.009,-0.0717 0,-0.1202 -0.0961,-0.1967 -0.2928,-0.2256 -0.0287,0 -0.0528,0 -0.072,0 -0.1392,0 -0.2254,0.072 -0.2498,0.2111 -0.2925,1.4687 -0.9261,2.5725 -1.9006,3.3117 -0.7773,0.5902 -1.7039,0.8833 -2.7833,0.8833 -1.3972,0 -2.4529,-0.4226 -3.1632,-1.2625 -0.5471,-0.6384 -0.8161,-1.4253 -0.8161,-2.3616 0,-0.9357 0.2404,-1.7084 0.7152,-2.3179 0.5184,-0.6576 1.3776,-1.2866 2.5871,-1.8961 l 1.4497,-0.7151 c 1.7419,-0.8734 2.9755,-1.656 3.7003,-2.3468 1.0848,-1.0562 1.6271,-2.2896 1.6271,-3.6958 0,-1.7329 -0.4609,-3.115 -1.3918,-4.1565 -1.1231,-1.2623 -2.8752,-1.8961 -5.2557,-1.8961 -1.6226,0 -3.259,0.3217 -4.9099,0.9697 -0.3935,1.3057 -0.7441,2.856 -1.0514,4.6557 -0.01,0.0241 -0.0142,0.0527 -0.0142,0.0816 0,0.1055 0.0862,0.1726 0.2637,0.2112 0.0578,0.009 0.1057,0.0142 0.1443,0.0142 0.1006,0 0.1822,-0.0672 0.2349,-0.1968 0.5571,-1.6364 1.3729,-2.8893 2.4622,-3.7482 0.9457,-0.7489 2.0064,-1.1231 3.1774,-1.1231 1.6608,0 2.9086,0.5037 3.7389,1.5165 0.6193,0.7487 0.9312,1.6416 0.9312,2.6686 0,1.2912 -0.4272,2.3853 -1.2816,3.2734 -0.6384,0.6574 -1.6557,1.3391 -3.062,2.0495 l -1.2384,0.6332 c -1.4925,0.7489 -2.558,1.4689 -3.1918,2.1648 -0.8541,0.9168 -1.2813,1.9871 -1.2813,3.2157 0,1.5361 0.5423,2.7839 1.6316,3.7485 1.0321,0.9167 2.3998,1.3776 4.1037,1.3776 0.7872,0 1.5072,-0.0961 2.1549,-0.288 0.6004,-0.1729 1.2291,-0.259 1.8964,-0.259 0.3118,0 0.5709,0.0192 0.7869,0.0575 z m 21.8673,0.0575 c 0.1103,-1.5502 0.2877,-3.0957 0.5326,-4.6459 0.009,-0.0482 0.0145,-0.0817 0.0145,-0.1106 0,-0.1151 -0.0913,-0.1919 -0.2687,-0.2398 -0.0624,-0.01 -0.1154,-0.0145 -0.1537,-0.0145 -0.1006,0 -0.1774,0.0769 -0.2256,0.2257 -0.1295,0.6191 -0.3696,1.2526 -0.7152,1.891 -0.3311,0.6191 -0.667,1.0462 -1.0128,1.2812 -0.6477,0.4609 -1.8573,0.6914 -3.6283,0.6914 l -0.6767,0.0145 c -0.8594,0 -1.4111,-0.1823 -1.6415,-0.5471 -0.1874,-0.2543 -0.3025,-0.7583 -0.341,-1.5072 -0.009,-0.216 -0.0142,-0.9457 -0.0142,-2.1937 v -10.1657 c 0,-1.5644 0.0286,-2.5628 0.0862,-2.9948 0.0479,-0.3356 0.1635,-0.6429 0.3503,-0.9263 0.1778,-0.288 0.4896,-0.4893 0.9312,-0.6046 0.2497,-0.0672 0.6769,-0.12 1.2767,-0.1681 0.1968,-0.0287 0.298,-0.1344 0.298,-0.3218 0,-0.1868 -0.0961,-0.2829 -0.2835,-0.2829 -1.6415,0.0768 -2.774,0.1106 -3.403,0.1106 -0.6477,0 -1.7133,-0.0338 -3.206,-0.1106 -0.1873,0 -0.2786,0.0961 -0.2786,0.2829 0,0.1874 0.0913,0.2931 0.2786,0.3218 0.6095,0.0575 1.0418,0.125 1.296,0.2111 0.3167,0.1199 0.5471,0.3073 0.6863,0.5616 0.2543,0.4609 0.3793,1.7663 0.3793,3.9211 v 10.1657 c 0,1.5315 -0.0145,2.4672 -0.0386,2.8128 -0.0383,0.3841 -0.1343,0.6962 -0.2832,0.9263 -0.2066,0.3314 -0.9504,0.4944 -2.2368,0.4944 -1.7708,0 -2.9707,-0.2591 -3.5994,-0.7775 -0.6721,-0.4655 -1.2433,-1.5072 -1.6991,-3.115 -0.0482,-0.1293 -0.1298,-0.1968 -0.2398,-0.1968 -0.0482,0 -0.106,0.009 -0.1681,0.0287 -0.1636,0.0388 -0.2404,0.1057 -0.2404,0.2111 0,0.0193 0.005,0.0531 0.0145,0.0961 0.2591,1.6991 0.4609,3.259 0.6049,4.6749 2.7261,-0.0768 5.6398,-0.1105 8.7304,-0.1105 3.2063,0 6.1631,0.0337 8.8747,0.1105 z m 12.0756,-12.268 -0.03,0.002 v 0.3665 h -0.2971 v 0.5939 h -0.3838 l 0.375,0.0172 -1.5885,4.5117 c -0.2353,0.6624 -0.5715,1.622 -0.9987,2.88 -0.3211,0.9164 -0.5471,1.5644 -0.6766,1.9389 -0.1293,-0.3938 -0.3935,-1.1376 -0.7869,-2.232 -0.4323,-1.1999 -0.7345,-2.0543 -0.917,-2.5583 l -1.6027,-4.5403 0.4221,-0.0172 h -0.3762 v -0.2968 h -0.2971 v -0.6608 l -0.0995,-0.004 -1.2622,-3.4844 c -0.5089,-1.387 -0.7631,-2.3808 -0.7631,-2.9806 0,-0.216 0.0286,-0.3934 0.0861,-0.5377 0.1299,-0.2781 0.389,-0.4703 0.7728,-0.5757 0.1777,-0.0482 0.5952,-0.1007 1.2529,-0.1681 0.1967,-0.019 0.2928,-0.1248 0.2928,-0.3218 0,-0.1868 -0.0961,-0.2829 -0.2928,-0.2829 -1.1086,0.0576 -2.0639,0.0862 -2.8701,0.0862 -1.0128,0 -2.0157,-0.0286 -3.0095,-0.0862 -0.1681,0 -0.2543,0.0961 -0.2543,0.2829 0,0.1874 0.0862,0.2931 0.2543,0.3218 0.864,0.1105 1.4686,0.3696 1.8144,0.7727 0.3118,0.3552 0.8396,1.5551 1.5886,3.5952 l 3.321,9.0232 c 1.2436,3.3741 2.0208,5.5341 2.3329,6.4794 l 1.1662,0.5474 c 0.0862,0 0.1537,-0.0819 0.2112,-0.2404 1.3105,-4.0169 2.0832,-6.3306 2.304,-6.94 l 3.2493,-9.0907 c 0.6577,-1.8284 1.1424,-2.9614 1.4641,-3.403 0.2061,-0.2877 0.4989,-0.4848 0.8876,-0.5902 0.2018,-0.0575 0.576,-0.1055 1.1089,-0.1536 0.1871,-0.019 0.2783,-0.1248 0.2783,-0.3218 0,-0.1868 -0.0912,-0.2829 -0.2783,-0.2829 -1.368,0.0768 -2.4673,0.1106 -3.2925,0.1106 -0.7971,0 -1.8575,-0.0338 -3.1918,-0.1106 -0.1873,0 -0.2786,0.0961 -0.2786,0.2829 0,0.197 0.0913,0.3028 0.2786,0.3218 1.1903,0.1009 1.8717,0.341 2.0398,0.7151 0.0769,0.173 0.1151,0.3697 0.1151,0.5902 0,0.4516 -0.2304,1.3105 -0.6911,2.5778 l -1.3776,3.8634 z" /></g></g><text
       id="text38"
       style="font-variant:normal;font-size:16.94000053px;font-family:Microsoft-Yi;-inkscape-font-specification:Microsoft-Yi-Baiti;writing-mode:lr-tb;fill:#cda953;fill-opacity:1;fill-rule:nonzero;stroke:none"
       transform="matrix(1,0,0,-1,88.3397,96.1696)"><tspan
         id="tspan36"
         y="0"
         x="0 13.0439 26.790501 39.834099 54.3092 68.784302 81.827904 95.574501">ADVOGADO</tspan></text>
<path
       id="path40"
       style="fill:none;stroke:#cda953;stroke-width:3.3599;stroke-linecap:butt;stroke-linejoin:miter;stroke-miterlimit:22.92558479;stroke-dasharray:none;stroke-opacity:1"
       d="m 141.4967,210.5515 h 6e-4 c 10.6829,0 19.423,-8.7403 19.423,-19.4232 v -22.5735 c 0,-10.6829 -8.7401,-19.4232 -19.423,-19.4232 h -6e-4 c -10.6829,0 -19.423,8.7403 -19.423,19.4232 v 22.5735 c 0,10.6829 8.7401,19.4232 19.423,19.4232 z" /><g
       id="g42"><g
         clip-path="url(#clipPath48)"
         id="g44"><path
           id="path58"
           style="fill:url(#linearGradient56);fill-rule:evenodd;stroke:none"
           d="m 144.2174,192.0427 c 0.7849,0.2784 1.5693,0.557 2.4869,0.7251 0.9172,0.1684 1.9669,0.2271 2.988,0.1976 1.0207,-0.0292 2.012,-0.1457 3.0327,-0.379 1.0208,-0.2333 2.0707,-0.5834 2.8582,-0.9335 0.7875,-0.3498 1.3125,-0.6998 1.8374,-1.0496 0.8164,0.9915 1.6334,1.9831 2.45,2.9747 0.1165,-4.4329 0.2333,-8.866 0.3498,-13.2988 -0.7583,0 -1.5165,0 -2.2748,0 -0.1752,1.2833 -0.3501,2.5665 -0.7291,3.7619 -0.3792,1.1959 -0.9623,2.3043 -1.6914,3.2663 -0.7291,0.9627 -1.6041,1.7793 -2.4792,2.3043 -0.8748,0.525 -1.7498,0.758 -2.6246,0.8748 -0.8747,0.1168 -1.7501,0.1168 -2.5373,-0.0292 -0.7874,-0.1457 -1.4873,-0.4374 -2.1288,-0.7583 -0.6418,-0.3206 -1.2251,-0.6707 -1.8085,-1.0207 -0.4085,0.9918 -0.8167,1.9831 -1.2248,2.9746 0.4983,0.1299 0.9972,0.26 1.4955,0.3898" /></g></g><g
       id="g60"><g
         clip-path="url(#clipPath66)"
         id="g62"><path
           id="path90"
           style="fill:url(#linearGradient88);fill-rule:evenodd;stroke:none"
           d="m 138.1723,202.8523 c 0.6998,0 1.3997,0 2.0999,0 3.8497,-10.5576 7.6991,-21.1152 9.799,-26.6272 2.0997,-5.512 2.45,-5.9785 2.8582,-6.3578 0.4082,-0.379 0.8748,-0.6707 1.3122,-0.8748 0.4376,-0.2041 0.8458,-0.3209 1.1375,-0.3793 0.2917,-0.0584 0.4666,-0.0584 0.6418,-0.0584 0.0581,-0.5831 0.1165,-1.1664 0.1749,-1.7495 -4.4331,0 -8.8659,0 -13.299,0 0,0.6415 0,1.2832 0,1.9247 0.5249,0 1.0499,0 1.6333,0.0292 0.5831,0.0292 1.2248,0.0876 1.6625,0.2917 0.4371,0.2041 0.6707,0.5542 0.6123,1.1665 -0.0584,0.6125 -0.4085,1.4876 -1.9834,5.7747 -1.5747,4.2871 -4.3744,11.9866 -7.1742,19.6858 -2.3916,-6.1246 -4.7829,-12.2491 -6.1246,-15.7488 -1.3413,-3.4996 -1.6333,-4.3747 -1.779,-5.0164 -0.146,-0.6415 -0.146,-1.0497 -0.0581,-1.3414 0.0873,-0.2917 0.2622,-0.4666 0.6123,-0.6418 0.3498,-0.1749 0.8748,-0.3498 1.3705,-0.4957 0.4958,-0.1457 0.9627,-0.2625 1.342,-0.3206 0.379,-0.0584 0.6706,-0.0584 0.962,-0.0584 -0.0581,1.3997 -0.1167,2.7998 -0.1167,4.1706 0,1.3705 0.0586,2.7122 0.2335,3.8202 0.1749,1.1084 0.4666,1.9834 0.6707,2.5665 0.2044,0.5834 0.3209,0.8751 0.4377,1.1665 1.633,0 3.2663,0 4.8994,0 0.6417,-1.5166 1.2832,-3.0328 1.925,-4.5493 0,-0.2336 0,-0.4669 0,-0.7002 -1.3998,0 -2.7998,0 -4.1998,0 0,-0.2333 0,-0.4663 0.2335,-0.9913 0.2333,-0.5249 0.6996,-1.3419 0.9913,-1.8377 0.2917,-0.4958 0.4085,-0.6707 0.4666,-1.1664 0.0584,-0.4958 0.0584,-1.3125 0.2044,-2.2748 0.1457,-0.9624 0.4374,-2.0707 0.7583,-3.0334 0.3208,-0.9621 0.6709,-1.7787 1.2248,-2.6246 0.5542,-0.8456 1.3122,-1.7206 2.0123,-2.4208 0.6999,-0.6996 1.3417,-1.2245 2.0415,-1.633 0.7002,-0.4082 1.4582,-0.6999 2.158,-0.8748 0.7002,-0.1749 1.3417,-0.2333 2.0418,-0.2333 0.6999,0 1.4579,0.0584 2.304,0.2333 0.8456,0.1749 1.7788,0.4666 2.5954,0.8748 0.8167,0.4085 1.5166,0.9334 2.1875,1.6625 0.6707,0.7291 1.3122,1.6622 1.8083,2.5373 0.4955,0.8751 0.8455,1.6914 1.1953,2.5081 -0.0581,-1.2833 -0.1165,-2.5665 -0.2622,-3.7624 -0.146,-1.1957 -0.3793,-2.3037 -1.4,-3.2953 -1.0208,-0.9916 -2.829,-1.8666 -4.4039,-2.4497 -1.5747,-0.5834 -2.9163,-0.8751 -4.3744,-0.9627 -1.4582,-0.0873 -3.0331,0.0292 -4.5204,0.4082 -1.4874,0.3793 -2.8874,1.0211 -4.0539,1.7209 -1.1667,0.6999 -2.0999,1.4582 -2.8873,2.2457 -0.7875,0.7874 -1.4293,1.6041 -1.9248,2.4497 -0.4957,0.8458 -0.8458,1.7209 -1.1083,2.4207 -0.2625,0.6999 -0.4374,1.2249 -0.525,1.5458 -0.0876,0.3206 -0.0876,0.4374 -0.0876,0.5539 -3.8497,0.0584 -7.6992,0.1168 -11.5489,0.1751 0,0.6415 0,1.2833 0,1.9248 0.2917,-0.0584 0.5831,-0.1165 0.9332,-0.0292 0.35,0.0876 0.7582,0.3209 1.2248,0.729 0.4666,0.4082 0.9916,0.9919 1.4876,1.8375 0.4958,0.8458 0.9621,1.9542 1.7496,3.7916 0.7874,1.8371 1.8958,4.4036 3.5875,8.5739 1.6914,4.1706 3.9662,9.9451 6.2411,15.7198" /></g></g></g></svg>